# xmcd
#
# Track frame offsets:
# 150
# 38042
# 57615
# 76885
# 92888
# 110071
# 125026
# 145235
# 161669
# 174746
# 192952
# 210939
# 228334
# 243714
# 259258
# 276340
# 298335
#
# Disc length: 4230 seconds
#
#
# Revision: 0
# Processed by: cddbd v1.5.1PL0 Copyright (c) Steve Scherf et al.
# Submitted via: FreeRIP 2.70 
#
DISCID=0b108411
DTITLE=Caribe Mix 98 - Caribe Mix 98 Cd1
DYEAR=1998
DGENRE=Dance
TTITLE0=Mike Platinas - Caribe Mix 98
TTITLE1=Amica - No Voy A Morirme De Pena
TTITLE2=Eddy - Corazon Partio
TTITLE3=É o Tchan - Ralando O Tchan
TTITLE4=BOC - La Soga
TTITLE5=Plácido Domingo - Baila Baila Comigo
TTITLE6=Bocachica - La Copa De La Vida
TTITLE7=Banda Del Caribe - Sacatela Metetela
TTITLE8=Mojitos Band - Por Arriba Por Abajo
TTITLE9=Latina - Ta Bueno Ya
TTITLE10=Habana Club Band - Ojala Que Lleuva Cafe
TTITLE11=La Linea - Me Dejo Solito
TTITLE12=Maria - Por Amor
TTITLE13=Dos En El Jardin - El Mondongo
TTITLE14=Brando Y El Grupo Nitrogeno - Punto Debil
TTITLE15=Kinito Mendez - El Baile Del Suasua
TTITLE16=Los Bestias - El Baile Del Antifaz
EXTD=
EXTT0=
EXTT1=
EXTT2=
EXTT3=
EXTT4=
EXTT5=
EXTT6=
EXTT7=
EXTT8=
EXTT9=
EXTT10=
EXTT11=
EXTT12=
EXTT13=
EXTT14=
EXTT15=
EXTT16=
PLAYORDER=
